<svg width="248" height="81" viewBox="0 0 248 81" fill="none" xmlns="http://www.w3.org/2000/svg">
<g clip-path="url(#clip0_9_8467)">
<path d="M138.205 58.1968C135.385 58.1765 135.294 58.0715 135.32 54.7794C135.339 52.2291 135.56 52.0327 138.393 52.0462C141.116 52.0598 141.327 52.307 141.311 55.5042C141.298 58.0037 141.051 58.2171 138.205 58.1968Z" fill="#F6F6F6"/>
<path d="M131.341 44.6289C133.979 44.6154 134.268 44.8829 134.285 47.3621C134.307 50.4374 134.041 50.7626 131.474 50.7829C128.42 50.81 128.193 50.6237 128.186 48.1106C128.18 44.6865 128.216 44.6459 131.341 44.6289Z" fill="#F6F6F6"/>
<path d="M31.1363 51.108C30.3282 50.6982 28.9132 50.3934 28.8288 49.8583C28.5887 48.3308 28.3323 46.1496 29.1306 45.286C29.9193 44.4359 32.0223 44.6662 33.486 44.8796C33.9695 44.9507 34.5569 46.4172 34.5991 47.2707C34.7614 50.5458 34.4693 50.7761 31.1363 51.108Z" fill="#F6F6F6"/>
<path d="M119.995 55.1858C119.979 58.0579 119.813 58.2069 116.704 58.19C114.05 58.1765 113.894 57.9766 113.903 54.6541C113.91 52.2901 114.231 52.0327 117.139 52.0598C119.833 52.0835 120.011 52.2799 119.995 55.1858Z" fill="#F6F6F6"/>
<path d="M109.973 52.0496C112.505 52.0293 112.855 52.3205 112.875 54.4611C112.907 58.0478 112.784 58.2103 109.967 58.2273C107.098 58.2442 106.783 57.9495 106.764 55.2096C106.748 52.2528 106.929 52.0733 109.973 52.0496Z" fill="#F6F6F6"/>
<path d="M121.043 3.02787C121.034 0.264175 121.277 0.0237064 124.068 0.0135458C126.827 0.00338513 127.138 0.304817 127.148 3.00755C127.158 5.93043 126.856 6.28266 124.334 6.28266C121.206 6.28266 121.053 6.13364 121.043 3.02787Z" fill="#F6F6F6"/>
<path d="M219.635 55.1486C219.625 58.0952 219.502 58.2069 216.205 58.1968C213.677 58.19 213.531 58.0071 213.537 54.8742C213.544 52.2968 213.803 52.0394 216.383 52.053C219.46 52.0699 219.645 52.2426 219.635 55.1486Z" fill="#F6F6F6"/>
<path d="M24.4508 65.6378C21.6338 65.6581 21.4326 65.4616 21.4164 62.7081C21.4001 59.7412 21.5981 59.494 24.0386 59.4804C27.1802 59.4635 27.4917 59.7073 27.5112 62.1933C27.5339 65.4718 27.4041 65.6174 24.4508 65.6378Z" fill="#F6F6F6"/>
<path d="M109.938 44.6289C112.826 44.6391 112.878 44.7001 112.868 48.1784C112.862 50.5458 112.563 50.8032 109.831 50.7863C106.981 50.7693 106.751 50.5187 106.764 47.457C106.777 44.805 106.988 44.6188 109.938 44.6289Z" fill="#F6F6F6"/>
<path d="M209.467 44.6188C212.226 44.6052 212.499 44.8559 212.505 47.3994C212.515 50.4713 212.294 50.749 209.847 50.766C206.68 50.7897 206.407 50.5763 206.401 48.0734C206.394 44.8017 206.543 44.6323 209.467 44.6188Z" fill="#F6F6F6"/>
<path d="M120.005 62.6607C119.989 65.4684 119.781 65.6615 116.834 65.6479C114.059 65.6344 113.887 65.4379 113.907 62.2306C113.92 59.7446 114.248 59.4533 117.006 59.4804C119.826 59.5075 120.024 59.7141 120.005 62.6607Z" fill="#F6F6F6"/>
<path d="M105.732 55.1046C105.728 58.0308 105.573 58.1968 102.84 58.1934C99.7991 58.19 99.6206 58.0139 99.6271 55.0673C99.6336 52.2765 99.8738 52.0462 102.804 52.053C105.612 52.0598 105.735 52.1885 105.732 55.1046Z" fill="#F6F6F6"/>
<path d="M220.674 47.5518C220.68 44.8525 220.93 44.6018 223.591 44.6154C226.538 44.6323 226.791 44.8897 226.785 47.8566C226.778 50.5357 226.467 50.7998 223.309 50.7829C220.891 50.7694 220.671 50.4984 220.674 47.5518Z" fill="#F6F6F6"/>
<path d="M117.045 7.46808C119.846 7.47146 120.002 7.65097 120.002 10.8753C120.002 13.4324 119.661 13.7338 116.792 13.7304C114.309 13.727 113.891 13.3138 113.9 10.8617C113.913 7.59678 114.033 7.46469 117.045 7.46808Z" fill="#F6F6F6"/>
<path d="M124.091 58.2002C121.225 58.2002 121.04 58.0241 121.04 55.2739C121.04 52.2901 121.271 52.0394 123.997 52.0462C126.856 52.0564 127.148 52.3205 127.145 54.9149C127.145 58.0173 126.976 58.1968 124.091 58.2002Z" fill="#F6F6F6"/>
<path d="M233.801 47.772C233.775 50.7219 233.701 50.7897 230.361 50.766C227.95 50.749 227.772 50.495 227.81 47.1386C227.836 44.7305 228.041 44.5815 231.254 44.6222C233.565 44.6526 233.824 44.971 233.801 47.772Z" fill="#F6F6F6"/>
<path d="M213.541 47.6229C213.541 44.805 213.735 44.6086 216.517 44.6086C219.437 44.6086 219.635 44.8017 219.635 47.6636C219.635 50.6102 219.441 50.7795 216.056 50.7897C213.803 50.7964 213.537 50.4611 213.541 47.6229Z" fill="#F6F6F6"/>
<path d="M105.722 10.6179C105.735 13.4595 105.492 13.7203 102.801 13.727C100.02 13.7338 99.6272 13.3511 99.6207 10.6043C99.6142 7.85757 99.9647 7.45792 102.402 7.44776C105.573 7.43421 105.706 7.56291 105.722 10.6179Z" fill="#F6F6F6"/>
<path d="M14.2732 3.00057C14.2829 0.389284 14.6659 -0.00359385 17.194 0.0065668C20.2025 0.0167274 20.3875 0.213166 20.368 3.3799C20.3518 6.10634 20.1571 6.26891 16.9052 6.2723C14.5782 6.2723 14.2634 5.88281 14.2732 3.00057Z" fill="#F6F6F6"/>
<path d="M105.728 3.12599C105.741 5.9913 105.485 6.27241 102.84 6.27918C100.065 6.28596 99.6466 5.93372 99.6336 3.57306C99.6141 0.270854 99.8445 0.0168381 102.821 0.00329061C105.485 -0.00687003 105.715 0.240372 105.728 3.12599Z" fill="#F6F6F6"/>
<path d="M131.338 0.0169383C133.856 0.00339075 134.285 0.409816 134.288 2.80773C134.291 5.85253 133.973 6.27589 131.666 6.28944C128.527 6.30976 128.2 6.05236 128.187 3.56639C128.17 0.189669 128.31 0.0338727 131.338 0.0169383Z" fill="#F6F6F6"/>
<path d="M105.735 32.9713C105.725 35.8163 105.582 35.9517 102.567 35.9416C99.9191 35.9314 99.6206 35.6198 99.6238 32.829C99.6271 30.0145 99.8997 29.7639 102.944 29.7808C105.602 29.7978 105.745 29.9637 105.735 32.9713Z" fill="#F6F6F6"/>
<path d="M109.905 22.3534C112.515 22.3128 112.842 22.5668 112.875 24.6734C112.927 28.0908 112.706 28.4735 110.687 28.5142C107.186 28.5819 106.799 28.3279 106.77 25.9198C106.728 22.577 106.884 22.4008 109.905 22.3534Z" fill="#F6F6F6"/>
<path d="M102.681 50.7693C99.7538 50.7456 99.6012 50.5729 99.6304 47.3012C99.6499 44.9134 100.03 44.5951 102.821 44.6086C105.628 44.6222 105.748 44.7712 105.722 48.1919C105.709 50.6102 105.492 50.7931 102.681 50.7693Z" fill="#F6F6F6"/>
<path d="M124.25 59.4838C127.015 59.5211 127.181 59.7209 127.142 62.9384C127.112 65.4007 126.755 65.6919 123.841 65.6513C121.17 65.614 120.979 65.3634 121.031 61.9325C121.063 59.7175 121.423 59.4465 124.25 59.4838Z" fill="#F6F6F6"/>
<path d="M131.305 66.9146C133.97 66.9045 134.281 67.2025 134.294 69.7833C134.307 72.6689 134.009 73.0415 131.675 73.0482C128.381 73.055 128.19 72.9128 128.18 70.4234C128.167 67.0162 128.245 66.9248 131.305 66.9146Z" fill="#F6F6F6"/>
<path d="M124.046 7.46469C127.009 7.47146 127.161 7.6408 127.155 10.9024C127.148 13.3443 126.697 13.7372 123.88 13.7372C121.375 13.7338 121.027 13.3646 121.034 10.6653C121.04 7.70177 121.267 7.45791 124.046 7.46469Z" fill="#F6F6F6"/>
<path d="M128.183 10.3334C128.177 7.65773 128.391 7.45791 131.315 7.44775C133.944 7.43758 134.281 7.7695 134.294 10.3808C134.307 13.4358 134.018 13.7338 131.033 13.744C128.459 13.7507 128.193 13.429 128.183 10.3334Z" fill="#F6F6F6"/>
<path d="M109.918 14.9091C112.615 14.8989 112.865 15.1292 112.872 17.6016C112.878 20.7243 112.541 21.168 110.175 21.1782C107.179 21.1883 106.773 20.8259 106.767 18.1266C106.761 15.119 106.955 14.9192 109.918 14.9091Z" fill="#F6F6F6"/>
<path d="M71.3338 55.1181C71.3273 52.1444 71.4019 52.0598 74.0372 52.0598C77.0619 52.0598 77.1982 52.1715 77.2047 54.6473C77.2112 58.1561 77.1787 58.2002 74.6571 58.2002C71.337 58.2036 71.337 58.2036 71.3338 55.1181Z" fill="#F6F6F6"/>
<path d="M169.711 55.1316C169.708 58.0816 169.594 58.2035 166.859 58.2035C163.85 58.2002 163.85 58.2002 163.85 54.7896C163.85 52.1444 163.964 52.053 167.19 52.053C169.581 52.0496 169.711 52.2121 169.711 55.1316Z" fill="#F6F6F6"/>
<path d="M112.868 3.0719C112.865 6.093 112.683 6.27928 109.711 6.27589C107.127 6.27589 106.757 5.90334 106.757 3.31237C106.757 0.37256 107.088 0.00338994 109.727 0.0135506C112.654 0.0237112 112.868 0.233698 112.868 3.0719Z" fill="#F6F6F6"/>
<path d="M28.5561 10.4282C28.5659 7.55274 28.673 7.45791 31.8892 7.47146C34.2323 7.48162 34.6607 7.94223 34.6542 10.4655C34.6477 13.3951 34.3037 13.7473 31.4835 13.7372C28.832 13.7236 28.5464 13.4019 28.5561 10.4282Z" fill="#F6F6F6"/>
<path d="M209.363 37.2015C211.866 37.0965 212.434 37.4555 212.502 39.193C212.645 42.8711 212.43 43.2471 210.123 43.3555C207.131 43.4943 206.465 43.1218 206.4 41.2624C206.261 37.5165 206.404 37.3234 209.363 37.2015Z" fill="#F6F6F6"/>
<path d="M124.204 14.9023C126.947 14.926 127.168 15.18 127.148 18.3433C127.135 20.8733 126.703 21.212 123.559 21.1883C121.41 21.1714 121.017 20.6329 121.04 17.7473C121.06 15.1055 121.313 14.8786 124.204 14.9023Z" fill="#F6F6F6"/>
<path d="M131.085 65.6208C128.102 65.526 128.07 65.4786 128.183 61.5701C128.238 59.6531 128.696 59.3957 131.867 59.494C134.109 59.5651 134.375 59.9884 134.275 63.2907C134.213 65.3397 133.71 65.7055 131.085 65.6208Z" fill="#F6F6F6"/>
<path d="M112.871 62.6607C112.881 65.4616 112.699 65.631 109.694 65.631C107.069 65.631 106.77 65.3329 106.767 62.6979C106.764 59.7446 107.017 59.4736 109.753 59.4702C112.748 59.4702 112.862 59.5888 112.871 62.6607Z" fill="#F6F6F6"/>
<path d="M212.505 55.3281C212.512 57.9732 212.275 58.19 209.396 58.19C206.553 58.19 206.401 58.0207 206.394 54.8607C206.388 52.3612 206.693 52.0665 209.273 52.053C212.323 52.0394 212.499 52.2155 212.505 55.3281Z" fill="#F6F6F6"/>
<path d="M216.51 28.5006C213.66 28.4803 213.518 28.3177 213.537 25.1036C213.553 22.5329 213.806 22.3196 216.808 22.3399C219.437 22.3568 219.664 22.6447 219.635 25.93C219.616 28.2229 219.255 28.5175 216.51 28.5006Z" fill="#F6F6F6"/>
<path d="M109.763 35.928C107.166 35.9551 106.79 35.6164 106.764 33.2389C106.731 30.2618 107.053 29.8079 109.208 29.7809C112.651 29.7368 112.849 29.8791 112.868 32.3887C112.894 35.8535 112.855 35.8942 109.763 35.928Z" fill="#F6F6F6"/>
<path d="M220.67 32.6834C220.661 30.0179 220.875 29.791 223.413 29.7808C226.541 29.7639 226.772 29.9705 226.782 32.7681C226.791 35.464 226.415 35.928 224.211 35.9314C220.739 35.9382 220.683 35.8874 220.67 32.6834Z" fill="#F6F6F6"/>
<path d="M141.314 10.5264C141.318 13.3951 141.032 13.7169 138.465 13.7203C135.599 13.7236 135.31 13.4629 135.31 10.855C135.31 7.59339 135.43 7.45114 138.221 7.45114C141.097 7.45114 141.308 7.66113 141.314 10.5264Z" fill="#F6F6F6"/>
<path d="M112.862 40.1955C112.846 43.264 112.748 43.3589 109.73 43.3453C106.955 43.3318 106.744 43.0913 106.761 39.9483C106.774 37.4183 107.056 37.1947 110.204 37.2184C112.661 37.2388 112.878 37.4826 112.862 40.1955Z" fill="#F6F6F6"/>
<path d="M209.542 22.3568C212.395 22.3907 212.531 22.5532 212.505 25.8927C212.486 28.2771 212.083 28.5616 208.776 28.5142C206.634 28.4837 206.365 28.0874 206.394 25.0257C206.417 22.5837 206.722 22.3263 209.542 22.3568Z" fill="#F6F6F6"/>
<path d="M128.183 18.0216C128.183 15.0513 128.323 14.9057 131.211 14.9091C133.986 14.9091 134.285 15.2173 134.285 18.0656C134.285 20.7176 133.837 21.1782 131.266 21.1816C128.527 21.1816 128.183 20.8327 128.183 18.0216Z" fill="#F6F6F6"/>
<path d="M57.0864 62.6539C57.0929 59.4973 57.1123 59.4804 60.3513 59.4838C62.9054 59.4872 62.9638 59.5651 62.9605 62.9824C62.9605 65.526 62.8015 65.6547 59.6827 65.6445C57.2162 65.6378 57.0799 65.482 57.0864 62.6539Z" fill="#F6F6F6"/>
<path d="M102.785 22.3433C105.615 22.3331 105.719 22.4449 105.728 25.5201C105.735 28.3245 105.569 28.5006 102.931 28.5108C99.8446 28.5209 99.7375 28.4125 99.731 25.256C99.7277 22.5465 99.929 22.3534 102.785 22.3433Z" fill="#F6F6F6"/>
<path d="M124.127 37.232C127.099 37.2692 127.194 37.3844 127.145 40.8796C127.112 43.1895 126.814 43.3893 123.478 43.3521C121.183 43.325 120.992 43.0337 121.04 39.6028C121.07 37.4386 121.388 37.1947 124.127 37.232Z" fill="#F6F6F6"/>
<path d="M124.091 22.3534C127.067 22.3873 127.174 22.5126 127.142 25.9672C127.122 28.3008 126.768 28.5514 123.523 28.5074C121.267 28.4769 121.001 28.0942 121.037 24.9342C121.066 22.5702 121.358 22.3229 124.091 22.3534Z" fill="#F6F6F6"/>
<path d="M213.54 40.1515C213.544 37.2726 213.589 37.232 216.886 37.2354C219.382 37.2354 219.645 37.5165 219.639 40.1515C219.632 43.1353 219.415 43.3555 216.491 43.3555C213.664 43.3521 213.534 43.2166 213.54 40.1515Z" fill="#F6F6F6"/>
<path d="M202.37 37.232C205.278 37.2489 205.375 37.3505 205.362 40.3479C205.349 43.2742 205.229 43.3792 201.906 43.3555C199.54 43.3385 199.248 42.9829 199.258 40.121C199.274 37.4386 199.511 37.2184 202.37 37.232Z" fill="#F6F6F6"/>
<path d="M176.835 47.6704C176.841 50.7558 176.838 50.7592 173.496 50.7626C171.253 50.766 170.984 50.4848 170.977 48.1445C170.967 44.7542 171.068 44.6255 173.775 44.6222C176.78 44.6188 176.829 44.6662 176.835 47.6704Z" fill="#F6F6F6"/>
<path d="M162.588 62.576C162.575 65.6479 162.536 65.6852 159.261 65.6581C156.811 65.6378 156.684 65.4447 156.707 61.8919C156.723 59.6193 156.931 59.4702 160.069 59.4906C162.445 59.5041 162.601 59.6904 162.588 62.576Z" fill="#F6F6F6"/>
<path d="M28.5496 25.1916C28.5464 22.4178 28.6243 22.3534 32.1293 22.3365C34.281 22.3263 34.6412 22.7598 34.6477 25.3677C34.6542 28.0908 34.294 28.5006 31.8827 28.5074C28.647 28.5108 28.5561 28.4193 28.5496 25.1916Z" fill="#F6F6F6"/>
<path d="M84.3349 47.7482C84.3381 50.7016 84.2732 50.766 81.427 50.7727C78.4445 50.7795 78.4445 50.7795 78.4477 47.142C78.451 44.8152 78.6619 44.6188 81.1933 44.6222C84.2797 44.6255 84.3316 44.6763 84.3349 47.7482Z" fill="#F6F6F6"/>
<path d="M213.534 32.8832C213.518 30.001 213.713 29.791 216.419 29.7775C219.301 29.7639 219.616 30.0179 219.635 32.3955C219.661 35.7519 219.509 35.9179 216.322 35.9416C213.846 35.9619 213.55 35.6402 213.534 32.8832Z" fill="#F6F6F6"/>
<path d="M21.4131 47.6331C21.4164 44.7441 21.5267 44.6459 24.7267 44.6425C27.3165 44.6391 27.508 44.8592 27.5047 47.8465C27.5015 50.5661 27.2711 50.7727 24.2626 50.7693C21.5657 50.7693 21.4099 50.5966 21.4131 47.6331Z" fill="#F6F6F6"/>
<path d="M98.5822 62.5523C98.5886 65.4786 98.4523 65.6344 95.8917 65.6378C92.9676 65.6411 92.6366 65.3973 92.6204 63.2365C92.5912 59.6938 92.7339 59.4906 95.1972 59.4838C98.5172 59.4736 98.5724 59.5244 98.5822 62.5523Z" fill="#F6F6F6"/>
<path d="M102.817 74.3285C105.628 74.3319 105.732 74.4402 105.732 77.3936C105.732 80.2284 105.514 80.4892 103.165 80.4824C99.8998 80.4723 99.7213 80.3131 99.7311 77.3902C99.7408 74.4673 99.8868 74.3251 102.817 74.3285Z" fill="#F6F6F6"/>
<path d="M24.3827 14.909C27.1769 14.8955 27.495 15.1868 27.508 17.8048C27.5242 20.7108 27.1348 21.1646 24.6001 21.1883C21.887 21.212 21.4294 20.7921 21.4131 18.2722C21.3969 15.0852 21.5397 14.926 24.3827 14.909Z" fill="#F6F6F6"/>
<path d="M55.8533 55.0165C55.8468 58.1765 55.8111 58.2137 52.6014 58.2002C50.0408 58.19 49.9305 58.0376 49.9402 54.5525C49.9467 52.1749 50.1284 52.0293 53.033 52.036C55.73 52.0496 55.8598 52.1851 55.8533 55.0165Z" fill="#F6F6F6"/>
<path d="M124.094 73.0347C121.248 73.0381 121.043 72.8552 121.043 70.3015C121.043 67.2364 121.277 66.9078 123.481 66.8977C126.931 66.8774 127.142 67.0603 127.148 70.0712C127.155 72.7705 126.885 73.0313 124.094 73.0347Z" fill="#F6F6F6"/>
<path d="M102.798 66.918C105.602 66.9248 105.735 67.0603 105.728 69.9289C105.722 72.9128 105.598 73.0483 102.895 73.0415C99.9483 73.0347 99.6237 72.7231 99.627 69.9154C99.627 67.1517 99.8801 66.9146 102.798 66.918Z" fill="#F6F6F6"/>
<path d="M131.188 37.2083C133.992 37.1913 134.272 37.4555 134.285 40.1481C134.298 43.0269 134.012 43.3521 131.438 43.3622C128.417 43.3724 128.199 43.203 128.186 40.8322C128.17 37.276 128.212 37.2252 131.188 37.2083Z" fill="#F6F6F6"/>
<path d="M138.286 35.9314C135.586 35.9484 135.32 35.7214 135.313 33.4353C135.304 29.8757 135.369 29.791 138.15 29.7809C141.045 29.7707 141.308 29.9908 141.317 32.4531C141.33 35.7689 141.204 35.9145 138.286 35.9314Z" fill="#F6F6F6"/>
<path d="M131.202 29.7978C133.934 29.7842 134.272 30.0891 134.291 32.5649C134.317 35.7011 134.093 35.9179 130.786 35.928C128.479 35.9348 128.2 35.6435 128.19 33.2151C128.177 29.8587 128.219 29.8113 131.202 29.7978Z" fill="#F6F6F6"/>
<path d="M70.0777 55.2468C70.0744 58.0545 69.9414 58.2002 67.4489 58.19C64.2035 58.1765 64.2035 58.1765 64.21 54.8641C64.2133 52.1851 64.3625 52.0462 67.1568 52.0496C69.9608 52.0564 70.0809 52.1884 70.0777 55.2468Z" fill="#F6F6F6"/>
<path d="M220.677 40.1244C220.677 37.4047 220.856 37.2218 223.556 37.2218C226.519 37.2218 226.795 37.4758 226.788 40.182C226.782 43.0845 226.525 43.3521 223.757 43.3521C220.794 43.3521 220.68 43.2335 220.677 40.1244Z" fill="#F6F6F6"/>
<path d="M31.5971 66.9078C34.3005 66.9146 34.6673 67.277 34.664 69.9323C34.6575 72.7705 34.333 73.0483 31.013 73.0347C28.7672 73.0279 28.5465 72.7536 28.5562 70.0001C28.5627 66.9959 28.6568 66.9011 31.5971 66.9078Z" fill="#F6F6F6"/>
<path d="M220.68 25.3169C220.696 22.3805 220.758 22.3297 224.312 22.35C226.499 22.3636 226.788 22.7429 226.775 25.5913C226.762 28.2398 226.412 28.5379 223.312 28.5175C220.898 28.5006 220.664 28.2161 220.68 25.3169Z" fill="#F6F6F6"/>
<path d="M202.383 14.9294C204.979 14.9023 205.346 15.2105 205.365 17.4323C205.394 20.7616 205.096 21.1545 202.509 21.1883C199.79 21.2222 199.277 20.7717 199.261 18.323C199.241 15.136 199.407 14.9565 202.383 14.9294Z" fill="#F6F6F6"/>
<path d="M152.572 52.0631C155.474 52.0801 155.503 52.1173 155.49 55.5923C155.48 58.0003 155.243 58.2205 152.657 58.2103C149.561 58.1934 149.561 58.1934 149.587 54.4915C149.603 52.2088 149.801 52.0462 152.572 52.0631Z" fill="#F6F6F6"/>
<path d="M10.3074 44.6323C13.066 44.6289 13.2348 44.8152 13.2315 47.8939C13.2315 50.4476 12.9395 50.7626 10.5801 50.7592C7.28274 50.7558 7.1367 50.6271 7.13994 47.6704C7.13994 44.8288 7.3444 44.6323 10.3074 44.6323Z" fill="#F6F6F6"/>
<path d="M85.5583 47.6162C85.5583 44.8152 85.7304 44.6188 88.1806 44.6188C91.4293 44.6154 91.465 44.6493 91.465 47.7652C91.465 50.6881 91.3611 50.7863 88.2033 50.7829C85.7304 50.7795 85.5583 50.5729 85.5583 47.6162Z" fill="#F6F6F6"/>
<path d="M91.4617 55.1046C91.465 58.0274 91.3319 58.19 88.9563 58.1968C85.5713 58.2036 85.5713 58.2036 85.5583 54.6541C85.5486 52.3002 85.8277 52.0462 88.4078 52.0462C91.3579 52.0428 91.4585 52.141 91.4617 55.1046Z" fill="#F6F6F6"/>
<path d="M205.375 55.2163C205.368 58.041 205.213 58.2069 202.574 58.2002C199.446 58.1934 199.436 58.1798 199.459 54.5389C199.472 52.2088 199.689 52.0462 202.74 52.0564C205.216 52.0665 205.381 52.2663 205.375 55.2163Z" fill="#F6F6F6"/>
<path d="M223.569 58.1595C220.68 58.1257 220.654 58.0918 220.68 54.434C220.697 52.2291 221.015 51.992 223.897 52.0327C226.606 52.0699 226.804 52.3104 226.778 55.5178C226.762 57.892 226.395 58.1934 223.569 58.1595Z" fill="#F6F6F6"/>
<path d="M70.0745 62.6742C70.0583 65.5395 69.9479 65.6581 67.2867 65.6445C64.2231 65.6276 64.1906 65.5903 64.2101 62.1086C64.2231 59.5211 64.3074 59.4567 67.4847 59.4736C69.9804 59.494 70.094 59.6328 70.0745 62.6742Z" fill="#F6F6F6"/>
<path d="M135.317 3.021C135.313 0.264082 135.55 0.0100662 138.13 0.00329241C141.051 -0.00348135 141.33 0.270856 141.327 3.18019C141.324 6.00146 141.048 6.27918 138.221 6.28257C135.495 6.28596 135.32 6.08952 135.317 3.021Z" fill="#F6F6F6"/>
<path d="M149.587 62.62C149.616 59.5007 149.681 59.4398 153.053 59.4669C155.341 59.4838 155.532 59.7649 155.503 63.0197C155.48 65.4684 155.26 65.6615 152.504 65.6411C149.707 65.6208 149.561 65.4718 149.587 62.62Z" fill="#F6F6F6"/>
<path d="M169.718 47.6873C169.731 50.6508 169.624 50.766 166.868 50.7795C164.064 50.7931 163.857 50.6136 163.85 48.2055C163.84 44.6594 163.863 44.6289 167.027 44.6222C169.617 44.6188 169.705 44.717 169.718 47.6873Z" fill="#F6F6F6"/>
<path d="M17.2687 80.4587C14.3283 80.4249 14.2407 80.3233 14.2732 76.9296C14.2959 74.5927 14.6561 74.3048 17.5315 74.3387C20.1765 74.3725 20.4102 74.6638 20.3745 77.8983C20.3485 80.2386 20.0402 80.4926 17.2687 80.4587Z" fill="#F6F6F6"/>
<path d="M112.865 77.563C112.862 80.3504 112.709 80.4892 109.672 80.4858C107.027 80.4825 106.751 80.1844 106.757 77.3631C106.764 74.5453 107.004 74.3353 110.259 74.3387C112.622 74.3454 112.868 74.6502 112.865 77.563Z" fill="#F6F6F6"/>
<path d="M123.99 80.496C121.189 80.4892 121.03 80.3063 121.04 77.1261C121.047 74.6909 121.384 74.3217 123.588 74.3251C126.934 74.3285 127.158 74.5385 127.148 77.6341C127.142 80.242 126.856 80.4994 123.99 80.496Z" fill="#F6F6F6"/>
<path d="M131.143 80.4757C128.284 80.4689 128.167 80.3368 128.18 77.1565C128.19 74.5385 128.433 74.3183 131.334 74.3285C133.986 74.3353 134.294 74.6604 134.291 77.4309C134.285 80.2521 134.048 80.4825 131.143 80.4757Z" fill="#F6F6F6"/>
<path d="M117.055 14.909C119.888 14.9294 120.028 15.1021 120.002 18.4754C119.982 20.7819 119.489 21.1985 116.785 21.1816C114.267 21.1646 113.878 20.6837 113.894 17.605C113.907 15.1935 114.267 14.8887 117.055 14.909Z" fill="#F6F6F6"/>
<path d="M117.019 22.3433C119.781 22.3433 119.998 22.5634 119.998 25.3915C119.998 28.3143 119.794 28.5006 116.584 28.5074C114.28 28.5108 113.91 28.1111 113.907 25.615C113.9 22.5465 114.092 22.3466 117.019 22.3433Z" fill="#F6F6F6"/>
<path d="M138.263 28.5074C135.622 28.5311 135.333 28.2838 135.313 25.9875C135.284 22.5431 135.395 22.3873 137.832 22.367C141.058 22.3433 141.308 22.5431 141.321 25.2119C141.34 28.2838 141.155 28.4837 138.263 28.5074Z" fill="#F6F6F6"/>
<path d="M209.393 21.0698C206.54 21.0359 206.358 20.8192 206.397 17.5034C206.423 15.1089 206.744 14.8786 210.003 14.9124C212.301 14.9361 212.531 15.2681 212.499 18.4754C212.473 20.7988 212.106 21.1037 209.393 21.0698Z" fill="#F6F6F6"/>
<path d="M138.072 51.0979C137.202 50.6914 135.739 50.4476 135.586 49.8447C135.236 48.4493 135.473 46.8778 135.593 45.3876C135.612 45.137 136.229 44.866 136.608 44.7475C136.956 44.6391 137.358 44.7204 137.735 44.7238C141.382 44.7305 141.399 44.7475 141.301 48.4155C141.243 50.6 141.012 50.7761 138.072 51.0979Z" fill="#F6F6F6"/>
<path d="M209.562 29.7808C212.2 29.7741 212.499 30.0518 212.505 32.5242C212.518 35.6537 212.284 35.9145 209.513 35.9247C206.722 35.9348 206.404 35.6368 206.397 32.9916C206.394 29.9468 206.553 29.7876 209.562 29.7808Z" fill="#F6F6F6"/>
<path d="M38.5716 58.2036C35.9007 58.2103 35.693 58.0139 35.6865 55.4703C35.6767 52.0733 35.6832 52.0665 39.0584 52.0631C41.2913 52.0597 41.632 52.3984 41.6353 54.6372C41.6418 58.129 41.5833 58.1934 38.5716 58.2036Z" fill="#F6F6F6"/>
<path d="M105.725 40.3987C105.696 43.3216 105.612 43.3927 102.077 43.3487C99.8803 43.3216 99.6045 42.9389 99.6272 39.9212C99.6434 37.4962 100.062 37.188 103.301 37.2184C105.605 37.2388 105.751 37.4352 105.725 40.3987Z" fill="#F6F6F6"/>
<path d="M120.005 32.9035C119.998 35.6842 119.745 35.9246 116.834 35.928C114.17 35.9314 113.884 35.6097 113.9 32.6394C113.913 30.0789 114.212 29.7842 116.759 29.791C119.875 29.8046 120.011 29.9333 120.005 32.9035Z" fill="#F6F6F6"/>
<path d="M209.351 65.5836C206.498 65.5429 206.345 65.3533 206.397 61.8614C206.427 59.7412 206.871 59.4127 209.649 59.4431C212.343 59.4736 212.538 59.7209 212.499 63.1145C212.473 65.3837 212.164 65.6242 209.351 65.5836Z" fill="#F6F6F6"/>
<path d="M205.359 62.6776C205.342 65.5294 205.245 65.6208 202.194 65.6039C199.439 65.5903 199.244 65.377 199.261 62.3525C199.277 59.6227 199.498 59.4567 203.064 59.4804C205.119 59.4939 205.375 59.8496 205.359 62.6776Z" fill="#F6F6F6"/>
<path d="M3.05076 28.4972C0.327876 28.4871 -0.00639976 28.1585 9.10285e-05 25.4998C0.00982721 22.5194 0.220778 22.3297 3.53757 22.35C5.83855 22.3636 6.10792 22.7124 6.10143 25.6692C6.09494 28.2026 5.76716 28.5074 3.05076 28.4972Z" fill="#F6F6F6"/>
<path d="M60.0204 44.6323C62.9932 44.6662 62.9932 44.6662 62.9543 48.4629C62.9315 50.6745 62.7401 50.7964 59.3584 50.7592C57.1223 50.7355 57.0379 50.5932 57.0801 46.9252C57.1061 44.7644 57.3138 44.6018 60.0204 44.6323Z" fill="#F6F6F6"/>
<path d="M156.73 55.2163C156.733 52.1749 156.834 52.0598 159.505 52.0631C162.477 52.0665 162.594 52.1648 162.594 54.7185C162.594 58.19 162.575 58.2103 159.316 58.2069C156.886 58.2069 156.727 58.0241 156.73 55.2163Z" fill="#F6F6F6"/>
<path d="M142.46 47.6196C142.457 44.8152 142.638 44.6188 145.248 44.6188C148.237 44.6188 148.386 44.761 148.389 47.6128C148.392 50.6136 148.24 50.7795 145.413 50.7829C142.596 50.7897 142.463 50.6474 142.46 47.6196Z" fill="#F6F6F6"/>
<path d="M148.36 62.6573C148.334 65.5294 148.172 65.6852 145.238 65.6479C142.518 65.614 142.434 65.4989 142.466 61.7835C142.486 59.626 142.742 59.4533 145.916 59.4804C148.217 59.5041 148.389 59.7276 148.36 62.6573Z" fill="#F6F6F6"/>
<path d="M14.2733 32.8832C14.2798 29.9333 14.4356 29.791 17.7004 29.791C20.1539 29.791 20.3876 30.0687 20.3779 32.9815C20.3681 35.6605 20.0696 35.945 17.2883 35.9247C14.5751 35.9111 14.2668 35.5961 14.2733 32.8832Z" fill="#F6F6F6"/>
<path d="M138.296 66.9248C141.181 66.9281 141.327 67.0907 141.321 70.2202C141.314 72.7875 141.029 73.0381 138.121 73.0347C135.382 73.0313 135.307 72.9399 135.314 69.5462C135.317 67.0873 135.505 66.9214 138.296 66.9248Z" fill="#F6F6F6"/>
<path d="M98.5983 47.7516C98.5918 50.6813 98.4879 50.7795 95.3366 50.7727C92.8831 50.766 92.6365 50.495 92.6365 47.8126C92.6397 44.7915 92.8052 44.6086 95.5963 44.6222C98.4879 44.6323 98.6048 44.7542 98.5983 47.7516Z" fill="#F6F6F6"/>
<path d="M35.6895 77.3598C35.6862 74.5453 35.881 74.3319 38.4675 74.3251C41.4501 74.3183 41.6643 74.5148 41.6675 77.2717C41.6708 80.3029 41.489 80.4825 38.3572 80.4825C35.8518 80.4825 35.6927 80.2962 35.6895 77.3598Z" fill="#F6F6F6"/>
<path d="M42.8165 62.4676C42.823 59.5211 42.8749 59.477 46.0911 59.4838C48.4894 59.4906 48.7393 59.7412 48.7328 62.1459C48.7231 65.526 48.6355 65.6378 45.9223 65.6276C42.8846 65.6174 42.8132 65.5463 42.8165 62.4676Z" fill="#F6F6F6"/>
<path d="M117.003 73.0245C114.004 73.0144 113.887 72.8789 113.903 69.4514C113.916 67.1686 114.251 66.8909 117.003 66.9112C119.849 66.9315 120.024 67.1381 120.008 70.4031C119.992 72.8112 119.732 73.0347 117.003 73.0245Z" fill="#F6F6F6"/>
<path d="M120.002 47.6196C120.011 50.5695 119.807 50.7693 116.799 50.7761C114.212 50.7795 113.913 50.4747 113.907 47.7957C113.9 44.8829 114.095 44.673 116.795 44.6594C119.826 44.6493 119.992 44.8017 120.002 47.6196Z" fill="#F6F6F6"/>
<path d="M227.81 32.8629C227.814 29.9299 227.95 29.7842 230.722 29.7944C233.513 29.8012 233.811 30.0721 233.801 32.5682C233.788 35.7892 233.649 35.9585 231.017 35.9484C227.859 35.9382 227.804 35.884 227.81 32.8629Z" fill="#F6F6F6"/>
<path d="M84.3317 55.1486C84.3187 58.1223 84.2116 58.2273 81.135 58.2002C78.5224 58.1798 78.438 58.0782 78.4543 54.9488C78.4705 52.1106 78.5419 52.0462 81.6607 52.0598C84.2246 52.0699 84.3446 52.2088 84.3317 55.1486Z" fill="#F6F6F6"/>
<path d="M38.6818 59.477C41.4371 59.4804 41.674 59.6938 41.6611 62.1256C41.6448 65.5294 41.5702 65.6141 38.6558 65.6073C35.7187 65.6005 35.6766 65.5531 35.6863 62.2983C35.6928 59.643 35.8745 59.4736 38.6818 59.477Z" fill="#F6F6F6"/>
<path d="M77.2014 47.6636C77.1917 50.7761 77.1917 50.7761 73.5763 50.7829C71.4992 50.7863 71.3305 50.556 71.3402 47.7584C71.3499 44.8084 71.4927 44.6255 73.8035 44.6323C77.1365 44.6391 77.2111 44.7034 77.2014 47.6636Z" fill="#F6F6F6"/>
<path d="M95.6451 43.3453C92.7177 43.3487 92.5977 43.2064 92.6074 39.7146C92.6139 37.4995 92.9611 37.2286 95.7781 37.2218C98.368 37.2184 98.6049 37.4216 98.5984 39.6705C98.5919 43.3419 98.5919 43.3419 95.6451 43.3453Z" fill="#F6F6F6"/>
<path d="M35.6797 69.8747C35.6765 67.0027 35.7901 66.8977 38.9998 66.8943C41.5572 66.8909 41.687 67.067 41.674 70.5419C41.6643 72.7265 41.2651 73.0381 38.4838 73.0448C35.8096 73.0482 35.683 72.9026 35.6797 69.8747Z" fill="#F6F6F6"/>
<path d="M42.8164 47.6534C42.8164 44.7339 42.917 44.6357 45.893 44.6289C48.5965 44.6222 48.762 44.8118 48.7555 47.9244C48.749 50.5526 48.538 50.7727 45.9742 50.7727C42.8781 50.7727 42.8197 50.7118 42.8164 47.6534Z" fill="#F6F6F6"/>
<path d="M98.5982 10.6551C98.5982 13.5103 98.3743 13.7338 95.5118 13.7338C92.9966 13.7338 92.6267 13.3714 92.6364 10.9227C92.6494 7.64081 92.7857 7.46808 95.3398 7.47147C98.582 7.47485 98.595 7.48501 98.5982 10.6551Z" fill="#F6F6F6"/>
<path d="M35.6831 3.08876C35.7026 0.240392 35.946 -0.0170105 38.6332 0.00331076C41.5281 0.0270189 41.6611 0.186202 41.6417 3.5426C41.6254 6.06583 41.3593 6.28936 38.3541 6.27243C35.8454 6.25549 35.6636 6.03873 35.6831 3.08876Z" fill="#F6F6F6"/>
<path d="M234.947 40.3208C234.937 37.2692 234.986 37.2184 238.121 37.2117C240.516 37.2049 240.893 37.5266 240.912 39.5825C240.948 43.3318 240.931 43.3487 237.547 43.3521C235.145 43.3555 234.957 43.1353 234.947 40.3208Z" fill="#F6F6F6"/>
<path d="M55.8564 47.7618C55.8727 50.6406 55.7526 50.7626 52.9193 50.7795C50.138 50.7964 49.9628 50.6406 49.9498 48.1445C49.9336 44.6594 49.9336 44.6594 53.2147 44.6425C55.7591 44.6357 55.837 44.7272 55.8564 47.7618Z" fill="#F6F6F6"/>
<path d="M95.7002 14.9057C98.5205 14.9192 98.6146 15.031 98.5983 18.3196C98.5854 20.8598 98.2251 21.1782 95.3692 21.1714C92.9773 21.1646 92.6203 20.7751 92.6301 18.1774C92.6398 15.0479 92.7891 14.8921 95.7002 14.9057Z" fill="#F6F6F6"/>
<path d="M163.844 77.4681C163.847 74.4944 163.99 74.3149 166.323 74.3183C169.647 74.3217 169.718 74.3827 169.715 77.187C169.708 80.4824 169.695 80.496 166.596 80.4892C163.964 80.4824 163.844 80.347 163.844 77.4681Z" fill="#F6F6F6"/>
<path d="M38.8117 43.3487C35.9006 43.369 35.6994 43.1997 35.6864 40.6832C35.6702 37.3675 35.7643 37.232 38.1626 37.2184C41.3593 37.2015 41.6417 37.4013 41.6612 39.7112C41.6936 43.1726 41.5735 43.3284 38.8117 43.3487Z" fill="#F6F6F6"/>
<path d="M55.8402 3.27511C55.8207 6.17428 55.6876 6.30975 52.9031 6.28943C50.0958 6.26911 49.9303 6.08283 49.9563 2.92964C49.979 0.223527 50.1932 -0.0101676 52.6629 0.0101536C55.8239 0.0372487 55.8629 0.0812779 55.8402 3.27511Z" fill="#F6F6F6"/>
<path d="M55.8434 69.9391C55.8564 72.8078 55.6747 73.0516 53.5165 73.0618C50.0991 73.0753 49.9758 72.9873 49.9595 70.5386C49.9401 67.128 50.0731 66.9214 52.2897 66.9112C55.8272 66.8909 55.8272 66.8909 55.8434 69.9391Z" fill="#F6F6F6"/>
<path d="M142.447 3.29865C142.46 0.148852 142.625 -0.0137179 145.825 0.00660336C148.266 0.0235378 148.435 0.253846 148.412 3.58315C148.396 6.07589 148.142 6.29604 145.29 6.27911C142.667 6.26217 142.434 6.01832 142.447 3.29865Z" fill="#F6F6F6"/>
<path d="M77.2047 32.9408C77.195 35.7892 77.0717 35.9416 74.7674 35.9314C71.3208 35.9179 71.3208 35.9179 71.3305 32.7681C71.3403 29.7605 71.3403 29.7605 74.5954 29.7775C77.1593 29.7944 77.2177 29.8621 77.2047 32.9408Z" fill="#F6F6F6"/>
<path d="M234.95 47.6433C234.95 44.7813 235.103 44.6222 237.887 44.6255C240.656 44.6289 240.902 44.8457 240.905 47.247C240.912 50.6576 240.821 50.7693 238.118 50.7693C235.08 50.7761 234.95 50.6474 234.95 47.6433Z" fill="#F6F6F6"/>
<path d="M57.0832 10.4993C57.0735 7.59678 57.1936 7.47146 59.9749 7.4613C62.8795 7.45114 62.9476 7.53243 62.9606 10.9295C62.9704 13.4459 62.7075 13.7203 60.2864 13.727C57.1384 13.7372 57.093 13.6932 57.0832 10.4993Z" fill="#F6F6F6"/>
<path d="M38.5487 28.5006C35.9297 28.5142 35.6863 28.294 35.6798 25.9096C35.6701 22.6311 35.8453 22.3568 37.9418 22.3399C41.5215 22.3162 41.6351 22.411 41.6513 25.4558C41.6643 28.3109 41.4891 28.4871 38.5487 28.5006Z" fill="#F6F6F6"/>
<path d="M74.2578 65.6005C71.3013 65.5768 71.3013 65.5768 71.3337 61.9494C71.3565 59.5278 71.4571 59.4533 74.7641 59.4736C77.143 59.4872 77.2241 59.6125 77.2047 63.145C77.1917 65.4684 77.0067 65.6242 74.2578 65.6005Z" fill="#F6F6F6"/>
<path d="M49.95 25.4389C49.95 22.3771 49.9727 22.3534 52.9714 22.35C55.6748 22.3466 55.8501 22.516 55.8468 25.0934C55.8436 28.4701 55.8111 28.5074 53.1564 28.5108C49.9759 28.5141 49.95 28.4871 49.95 25.4389Z" fill="#F6F6F6"/>
<path d="M84.3349 25.4118C84.3349 28.3651 84.2148 28.504 81.6282 28.5074C78.4672 28.5108 78.4412 28.4837 78.4445 25.6251C78.4477 22.3636 78.4802 22.3297 81.784 22.3365C84.1142 22.3433 84.3349 22.6074 84.3349 25.4118Z" fill="#F6F6F6"/>
<path d="M84.3317 62.5557C84.3349 65.5971 84.3252 65.6073 81.1512 65.6073C78.6035 65.6073 78.451 65.4515 78.4478 62.891C78.4478 59.5211 78.4737 59.4906 81.3102 59.4906C84.296 59.4872 84.3284 59.5244 84.3317 62.5557Z" fill="#F6F6F6"/>
<path d="M230.712 43.3521C227.914 43.3419 227.794 43.1929 227.81 39.762C227.82 37.3438 227.992 37.2083 231.036 37.2252C233.422 37.2388 233.801 37.5707 233.795 39.6367C233.779 43.3521 233.769 43.3656 230.712 43.3521Z" fill="#F6F6F6"/>
<path d="M84.3283 17.9098C84.3413 20.8937 84.0817 21.1815 81.3913 21.1917C78.6911 21.1985 78.4607 20.9445 78.4444 17.9234C78.4282 14.9937 78.5126 14.9124 81.547 14.9023C84.1271 14.8887 84.3186 15.0953 84.3283 17.9098Z" fill="#F6F6F6"/>
<path d="M159.631 73.0584C156.707 73.0381 156.701 73.0313 156.723 69.3769C156.736 67.067 156.957 66.8943 159.842 66.9112C162.526 66.9282 162.627 67.0569 162.601 70.4505C162.581 72.9162 162.4 73.0753 159.631 73.0584Z" fill="#F6F6F6"/>
<path d="M55.85 32.8595C55.8338 35.9653 55.8338 35.9653 52.371 35.9348C50.07 35.9145 49.9434 35.7316 49.9596 32.3786C49.9726 29.8757 50.1089 29.7639 53.1174 29.7808C55.717 29.7944 55.8663 29.9637 55.85 32.8595Z" fill="#F6F6F6"/>
<path d="M84.3348 33.056C84.3251 35.8298 84.2083 35.9382 81.2614 35.9314C78.425 35.9246 78.4217 35.9213 78.4444 32.3244C78.4607 29.9062 78.6262 29.7741 81.6671 29.7876C84.2634 29.7978 84.3446 29.8994 84.3348 33.056Z" fill="#F6F6F6"/>
<path d="M70.0809 77.4038C70.0809 80.3978 69.9901 80.4892 67.0692 80.4858C64.3398 80.4825 64.2068 80.3504 64.21 77.5968C64.21 74.3251 64.21 74.3251 67.5203 74.3217C69.8959 74.3217 70.0777 74.5419 70.0809 77.4038Z" fill="#F6F6F6"/>
<path d="M84.3348 77.4851C84.3316 80.4892 84.3316 80.4892 80.9207 80.4825C78.571 80.4791 78.4282 80.286 78.4314 77.1633C78.4379 74.4504 78.5548 74.3353 81.3588 74.3353C84.2212 74.3319 84.3381 74.4572 84.3348 77.4851Z" fill="#F6F6F6"/>
<path d="M91.465 77.5528C91.4585 80.4215 91.3871 80.4858 88.3073 80.4723C85.6493 80.4621 85.5389 80.3199 85.5552 76.9127C85.5681 74.5046 85.7758 74.3149 88.3916 74.3251C91.3969 74.3387 91.4715 74.4199 91.465 77.5528Z" fill="#F6F6F6"/>
<path d="M77.2014 18.008C77.1884 20.8666 76.919 21.1816 74.4882 21.1782C71.3856 21.1714 71.3207 21.0935 71.3305 17.5C71.3369 15.2173 71.6355 14.8921 73.7028 14.8989C77.2144 14.9158 77.2144 14.9158 77.2014 18.008Z" fill="#F6F6F6"/>
<path d="M84.3315 40.27C84.3217 43.2606 84.2244 43.3656 81.3068 43.3588C78.4703 43.3555 78.4216 43.2945 78.4281 39.7789C78.4346 37.3166 78.5806 37.2083 81.9493 37.2252C84.1789 37.2388 84.338 37.442 84.3315 40.27Z" fill="#F6F6F6"/>
<path d="M162.588 47.6771C162.578 50.6779 162.461 50.7998 159.599 50.7829C156.782 50.766 156.7 50.6643 156.717 47.2131C156.73 44.7034 156.821 44.6323 160.209 44.6459C162.435 44.6526 162.597 44.8626 162.588 47.6771Z" fill="#F6F6F6"/>
<path d="M183.972 77.5325C183.975 80.4723 183.975 80.4723 180.677 80.4757C178.237 80.4757 178.088 80.3131 178.091 77.6375C178.094 74.5215 178.234 74.3353 180.577 74.3285C183.959 74.3183 183.972 74.3285 183.972 77.5325Z" fill="#F6F6F6"/>
<path d="M148.357 40.3174C148.392 43.0879 148.214 43.3114 145.955 43.3453C142.664 43.3927 142.489 43.2742 142.46 40.9305C142.414 37.3268 142.46 37.2591 144.861 37.2286C148.295 37.188 148.318 37.2083 148.357 40.3174Z" fill="#F6F6F6"/>
<path d="M166.781 29.7741C169.721 29.8012 169.741 29.8249 169.718 33.2727C169.698 35.8467 169.562 35.9585 166.453 35.9314C163.899 35.9077 163.815 35.8027 163.844 32.6021C163.873 29.8486 163.977 29.7504 166.781 29.7741Z" fill="#F6F6F6"/>
<path d="M156.72 32.8798C156.713 29.896 156.811 29.7842 159.375 29.7808C162.51 29.7775 162.597 29.852 162.604 32.6326C162.614 35.8434 162.542 35.9213 159.618 35.928C156.837 35.9348 156.723 35.8163 156.72 32.8798Z" fill="#F6F6F6"/>
<path d="M176.838 40.3445C176.835 43.3385 176.803 43.3656 173.44 43.3589C171.094 43.3521 170.974 43.1827 170.98 39.867C170.984 37.3471 171.133 37.2117 173.901 37.2184C176.803 37.2252 176.842 37.2692 176.838 40.3445Z" fill="#F6F6F6"/>
<path d="M60.1015 29.791C62.9347 29.8012 62.9737 29.8452 62.9607 33.0119C62.9477 35.7858 62.7822 35.9484 59.9327 35.9382C57.1385 35.928 57.0573 35.823 57.08 32.1551C57.0898 29.896 57.2326 29.7808 60.1015 29.791Z" fill="#F6F6F6"/>
<path d="M74.2708 28.5074C71.3143 28.4972 71.3143 28.4972 71.3272 25.029C71.337 22.5499 71.5479 22.3365 73.9365 22.3466C77.2209 22.3602 77.2209 22.3602 77.2111 25.8521C77.2047 28.4058 77.0813 28.5175 74.2708 28.5074Z" fill="#F6F6F6"/>
<path d="M181.031 37.2387C183.984 37.2489 183.984 37.2489 183.975 40.6968C183.968 43.1895 183.783 43.3555 181.025 43.3487C178.101 43.3419 178.065 43.2979 178.084 39.6841C178.097 37.3573 178.253 37.2286 181.031 37.2387Z" fill="#F6F6F6"/>
<path d="M91.4616 25.5879C91.4519 28.4193 91.348 28.5175 88.2714 28.5108C85.74 28.504 85.542 28.294 85.5485 25.6116C85.555 22.4042 85.6361 22.3263 88.9107 22.3365C91.2928 22.3433 91.4713 22.5736 91.4616 25.5879Z" fill="#F6F6F6"/>
<path d="M67.027 28.5006C64.21 28.4871 64.1808 28.4464 64.2035 24.7073C64.2165 22.4787 64.4502 22.3162 67.5852 22.3365C69.9381 22.35 70.0939 22.5566 70.0809 25.6285C70.0744 28.4058 69.9576 28.5142 67.027 28.5006Z" fill="#F6F6F6"/>
<path d="M60.0495 73.0347C57.1124 73.0381 57.08 73.0042 57.0767 69.9493C57.0735 67.0365 57.1871 66.9146 59.9749 66.9146C62.8048 66.9146 62.9541 67.0535 62.9541 69.6919C62.9541 73.011 62.9379 73.0313 60.0495 73.0347Z" fill="#F6F6F6"/>
<path d="M77.2014 70.0847C77.2014 72.9568 77.1203 73.0415 74.4104 73.0449C71.3986 73.0449 71.324 72.9737 71.3272 70.0441C71.3337 66.9214 71.3499 66.9045 74.4396 66.9078C77.1073 66.9112 77.2014 67.0162 77.2014 70.0847Z" fill="#F6F6F6"/>
<path d="M62.9574 3.32571C62.9574 6.10295 62.7854 6.27907 60.0917 6.27907C57.2228 6.27907 57.0833 6.13004 57.0833 3.13265C57.0833 0.121717 57.2001 -0.000210362 60.1144 0.0065634C62.8406 0.00995028 62.9574 0.148812 62.9574 3.32571Z" fill="#F6F6F6"/>
<path d="M95.6905 66.9078C98.4654 66.9146 98.6179 67.0738 98.6081 69.9628C98.5952 72.9331 98.5011 73.0415 95.895 73.0347C92.747 73.0279 92.6334 72.9229 92.6399 69.9831C92.6431 67.0264 92.7664 66.9011 95.6905 66.9078Z" fill="#F6F6F6"/>
<path d="M64.2135 3.12948C64.207 0.0643566 64.2686 0.00677973 67.3939 5.96802e-06C69.8669 -0.00338091 70.0714 0.22354 70.0779 2.98723C70.0844 6.09978 69.9383 6.2759 67.3712 6.27928C64.2556 6.27928 64.2199 6.24203 64.2135 3.12948Z" fill="#F6F6F6"/>
<path d="M85.5616 3.01772C85.5519 0.196445 85.7174 0.0203273 88.3754 0.0101666C91.2833 6.00424e-06 91.452 0.16935 91.465 3.09562C91.4747 6.02865 91.2541 6.27928 88.635 6.28944C85.6882 6.2996 85.5714 6.17429 85.5616 3.01772Z" fill="#F6F6F6"/>
<path d="M155.5 3.23108C155.477 6.14041 155.308 6.30637 152.381 6.28605C149.717 6.26912 149.554 6.0659 149.58 2.72644C149.6 0.142248 149.808 -0.0203225 153.04 0.0135463C155.312 0.0406413 155.523 0.314979 155.5 3.23108Z" fill="#F6F6F6"/>
<path d="M169.715 3.09222C169.731 6.12348 169.604 6.26911 166.946 6.28266C163.996 6.29621 163.847 6.16073 163.834 3.43768C163.818 0.0507997 163.837 0.0270918 166.849 0.0101574C169.601 -0.00339013 169.698 0.101603 169.715 3.09222Z" fill="#F6F6F6"/>
<path d="M183.968 3.21408C183.955 6.20131 183.881 6.27244 180.885 6.26228C178.159 6.25211 178.071 6.14035 178.091 2.72637C178.107 0.13202 178.279 -0.0136162 181.346 0.00331822C183.816 0.0168657 183.981 0.220078 183.968 3.21408Z" fill="#F6F6F6"/>
<path d="M42.8198 10.4959C42.8263 7.72547 43.0405 7.45791 45.2376 7.46807C48.7557 7.48162 48.7557 7.48162 48.7427 11.0683C48.7329 13.4798 48.4051 13.7575 45.5914 13.744C43.0762 13.7304 42.8101 13.4188 42.8198 10.4959Z" fill="#F6F6F6"/>
<path d="M62.9542 77.4309C62.9736 80.3233 62.8536 80.4621 60.2378 80.4825C57.291 80.5062 57.0962 80.347 57.0833 77.8881C57.0638 74.3624 57.0833 74.3386 60.2994 74.3116C62.7919 74.2912 62.9314 74.4572 62.9542 77.4309Z" fill="#F6F6F6"/>
<path d="M55.8468 10.5738C55.8662 13.5746 55.7494 13.6898 52.702 13.7202C50.2582 13.744 49.9564 13.429 49.9434 10.8177C49.9272 7.66451 50.0765 7.47145 52.5267 7.46129C55.7656 7.44775 55.8273 7.50532 55.8468 10.5738Z" fill="#F6F6F6"/>
<path d="M77.2013 10.5738C77.1948 13.6288 77.091 13.7304 74.0728 13.7236C71.4116 13.7169 71.3207 13.6017 71.3272 10.164C71.3304 7.57984 71.4732 7.45791 74.3843 7.46807C77.1462 7.47823 77.2078 7.54935 77.2013 10.5738Z" fill="#F6F6F6"/>
<path d="M91.4714 10.6111C91.4585 13.5475 91.2897 13.7203 88.3818 13.7135C85.766 13.7067 85.5518 13.4629 85.5616 10.5129C85.5713 7.55275 85.6784 7.44775 88.6415 7.45791C91.3578 7.46807 91.4812 7.60694 91.4714 10.6111Z" fill="#F6F6F6"/>
<path d="M142.453 10.4688C142.437 7.69838 142.625 7.485 145.108 7.46807C148.168 7.44775 148.37 7.62387 148.389 10.33C148.412 13.4256 148.175 13.7101 145.572 13.727C142.68 13.744 142.473 13.5272 142.453 10.4688Z" fill="#F6F6F6"/>
<path d="M245.082 37.2455C247.744 37.2015 247.955 37.3844 247.994 39.762C248.049 43.1353 247.906 43.3385 245.459 43.3724C242.343 43.4164 242.123 43.2471 242.087 40.8153C242.035 37.2963 242.035 37.2963 245.082 37.2455Z" fill="#F6F6F6"/>
<path d="M155.493 40.226C155.497 43.264 155.412 43.3487 152.342 43.3555C149.687 43.3622 149.574 43.2064 149.574 39.657C149.577 37.3607 149.739 37.2354 152.712 37.232C155.357 37.2252 155.49 37.3675 155.493 40.226Z" fill="#F6F6F6"/>
<path d="M42.8197 17.92C42.8262 14.9971 42.9268 14.8989 45.9255 14.909C48.6224 14.9158 48.7458 15.0581 48.7393 18.0893C48.7328 20.9512 48.4699 21.1985 45.4484 21.1816C43.1053 21.168 42.8132 20.8022 42.8197 17.92Z" fill="#F6F6F6"/>
<path d="M162.597 77.353C162.588 80.4452 162.545 80.4892 159.803 80.4757C156.71 80.4587 156.71 80.4587 156.72 77.1498C156.726 74.5554 156.947 74.3217 159.368 74.3285C162.591 74.3353 162.61 74.3522 162.597 77.353Z" fill="#F6F6F6"/>
<path d="M62.964 40.3886C62.9478 43.3487 62.9121 43.3792 59.5174 43.3555C57.1645 43.3385 57.0671 43.1963 57.0833 39.8467C57.0963 37.3234 57.2359 37.2015 60.1892 37.2218C62.8569 37.2421 62.9835 37.3844 62.964 40.3886Z" fill="#F6F6F6"/>
<path d="M176.838 77.5833C176.841 80.4655 176.838 80.4689 173.654 80.4757C171.139 80.4791 170.984 80.3199 170.98 77.712C170.977 74.5757 171.149 74.342 173.444 74.3387C176.819 74.3319 176.832 74.342 176.838 77.5833Z" fill="#F6F6F6"/>
<path d="M42.823 40.3208C42.8067 37.4657 42.9787 37.2388 45.1726 37.232C48.616 37.2218 48.7328 37.3065 48.7426 39.9178C48.7588 43.2031 48.6647 43.3318 46.2306 43.3453C42.8976 43.3656 42.8392 43.3114 42.823 40.3208Z" fill="#F6F6F6"/>
<path d="M156.72 3.06852C156.723 0.135477 156.843 0.00677481 159.596 0.0101617C162.555 0.0135486 162.604 0.0745126 162.594 3.63074C162.588 6.06929 162.302 6.31315 159.456 6.29621C156.915 6.28605 156.714 6.04897 156.72 3.06852Z" fill="#F6F6F6"/>
<path d="M84.3348 3.10222C84.325 6.12332 84.1758 6.27911 81.3425 6.27234C78.6067 6.26557 78.4217 6.07929 78.4347 3.35624C78.4509 0.121764 78.5872 -0.0137111 81.7709 0.00661019C84.1238 0.0201577 84.3445 0.287721 84.3348 3.10222Z" fill="#F6F6F6"/>
<path d="M176.838 10.5637C176.835 13.6999 176.809 13.7236 173.71 13.7203C171.133 13.7169 170.977 13.5441 170.984 10.645C170.99 7.60694 171.152 7.44437 174.115 7.45792C176.64 7.47146 176.842 7.70177 176.838 10.5637Z" fill="#F6F6F6"/>
<path d="M169.724 10.7161C169.718 13.5272 169.513 13.7304 166.729 13.727C163.999 13.727 163.847 13.5441 163.857 10.2622C163.863 7.56968 163.986 7.45452 166.842 7.46468C169.663 7.47823 169.731 7.55613 169.724 10.7161Z" fill="#F6F6F6"/>
<path d="M142.44 77.336C142.443 74.403 142.521 74.3353 145.887 74.3285C148.149 74.3251 148.396 74.6164 148.396 77.292C148.396 80.3673 148.262 80.4926 145.101 80.4858C142.622 80.4791 142.437 80.2623 142.44 77.336Z" fill="#F6F6F6"/>
<path d="M142.45 32.9171C142.473 29.8012 142.521 29.7537 145.923 29.7876C148.246 29.8113 148.405 30.0382 148.386 33.3201C148.37 35.7858 148.159 35.9619 145.228 35.9348C142.593 35.9077 142.431 35.735 142.45 32.9171Z" fill="#F6F6F6"/>
<path d="M162.581 25.51C162.578 28.5074 162.578 28.5074 159.2 28.5074C156.915 28.5074 156.71 28.25 156.717 25.3508C156.723 22.4482 156.824 22.3365 159.466 22.3432C162.565 22.3534 162.588 22.3737 162.581 25.51Z" fill="#F6F6F6"/>
<path d="M155.51 17.9979C155.5 20.9716 155.289 21.1849 152.313 21.1883C149.859 21.1917 149.58 20.8293 149.587 17.6829C149.593 15.1292 149.83 14.8989 152.456 14.9091C155.39 14.9158 155.516 15.0479 155.51 17.9979Z" fill="#F6F6F6"/>
<path d="M149.58 77.2412C149.577 74.4978 149.736 74.3387 152.462 74.3387C155.383 74.3387 155.496 74.447 155.503 77.2277C155.509 80.3673 155.383 80.4926 152.274 80.4892C149.716 80.4825 149.583 80.3233 149.58 77.2412Z" fill="#F6F6F6"/>
<path d="M152.482 28.5074C149.729 28.5074 149.587 28.355 149.59 25.4321C149.593 22.5634 149.775 22.3466 152.131 22.35C155.477 22.3568 155.5 22.3805 155.5 25.5879C155.497 28.3922 155.376 28.5074 152.482 28.5074Z" fill="#F6F6F6"/>
<path d="M162.598 10.6721C162.575 13.6085 162.432 13.7507 159.498 13.7236C156.85 13.6999 156.704 13.5103 156.73 10.1335C156.749 7.54935 156.934 7.40711 160.147 7.44775C162.406 7.47823 162.617 7.75595 162.598 10.6721Z" fill="#F6F6F6"/>
<path d="M152.501 7.46131C155.23 7.45453 155.49 7.68484 155.5 10.1132C155.516 13.5441 155.363 13.7203 152.407 13.727C149.846 13.7304 149.58 13.4425 149.577 10.689C149.574 7.60017 149.691 7.47147 152.501 7.46131Z" fill="#F6F6F6"/>
<path d="M176.841 3.12608C176.848 6.12009 176.705 6.27927 174.015 6.28943C171.042 6.29959 170.984 6.23185 170.98 2.83481C170.977 0.193045 171.162 0.0203139 173.966 0.016927C176.725 0.0135401 176.835 0.128694 176.841 3.12608Z" fill="#F6F6F6"/>
<path d="M162.585 18.0555C162.565 21.0292 162.367 21.212 159.206 21.1816C156.915 21.1579 156.694 20.8124 156.72 17.2629C156.736 15.0378 156.957 14.8786 159.959 14.8989C162.497 14.9192 162.604 15.0479 162.585 18.0555Z" fill="#F6F6F6"/>
<path d="M238.024 29.7978C240.659 29.791 240.889 30.0281 240.889 32.7613C240.889 35.8061 240.763 35.9517 238.111 35.9585C235.07 35.9653 234.95 35.8569 234.944 32.9984C234.937 29.835 234.966 29.8046 238.024 29.7978Z" fill="#F6F6F6"/>
<path d="M169.721 70.1322C169.724 72.8586 169.572 73.0347 167.18 73.0347C163.902 73.0347 163.844 72.9873 163.84 70.271C163.837 67.0298 163.928 66.918 166.628 66.9112C169.63 66.9045 169.718 66.9959 169.721 70.1322Z" fill="#F6F6F6"/>
<path d="M170.977 69.9696C170.983 67.0365 171.104 66.8875 173.499 66.8909C176.854 66.8943 176.858 66.8977 176.845 70.315C176.835 72.9805 176.77 73.0313 173.34 73.0313C171.12 73.0279 170.971 72.8383 170.977 69.9696Z" fill="#F6F6F6"/>
<path d="M166.774 37.2218C169.731 37.232 169.731 37.232 169.718 40.8729C169.708 43.2471 169.556 43.3622 166.459 43.3555C163.918 43.3487 163.834 43.2403 163.847 40.0262C163.86 37.2963 163.944 37.215 166.774 37.2218Z" fill="#F6F6F6"/>
<path d="M70.0778 10.5332C70.0843 13.5577 69.9285 13.7304 67.1375 13.7338C64.3951 13.7406 64.2134 13.5509 64.2102 10.6958C64.2069 7.46469 64.2069 7.46469 67.5562 7.4613C69.9318 7.4613 70.0681 7.62726 70.0778 10.5332Z" fill="#F6F6F6"/>
<path d="M45.9548 74.3387C48.6841 74.3454 48.7555 74.4301 48.7458 77.6409C48.7361 80.2928 48.5413 80.4791 45.7698 80.4689C42.8327 80.4587 42.8035 80.4283 42.8165 76.9736C42.823 74.4843 43.0047 74.3319 45.9548 74.3387Z" fill="#F6F6F6"/>
<path d="M64.2004 40.2836C64.2069 37.2015 64.2069 37.2015 67.6892 37.2117C69.9448 37.2184 70.0811 37.3979 70.0746 40.419C70.0681 43.2132 69.9188 43.3588 67.0661 43.3487C64.301 43.3419 64.1939 43.2268 64.2004 40.2836Z" fill="#F6F6F6"/>
<path d="M42.8231 32.8189C42.8198 29.8757 42.9107 29.7842 45.8835 29.7842C48.5447 29.7842 48.7427 29.9908 48.7394 32.741C48.7362 35.8434 48.655 35.928 45.6498 35.9314C42.9464 35.9348 42.8263 35.7993 42.8231 32.8189Z" fill="#F6F6F6"/>
<path d="M70.0779 18.0521C70.0941 20.9479 69.8929 21.1646 67.1862 21.1816C64.4341 21.2019 64.2134 20.9919 64.2037 18.34C64.1907 15.075 64.3043 14.9226 66.7481 14.9124C70.0454 14.9023 70.0616 14.9192 70.0779 18.0521Z" fill="#F6F6F6"/>
<path d="M62.9573 18.1604C62.9573 20.8869 62.6814 21.1815 60.1305 21.1815C57.2876 21.1815 57.0896 20.9749 57.0896 18.025C57.0896 14.909 57.1026 14.8989 60.3999 14.9057C62.8145 14.9124 62.9573 15.0953 62.9573 18.1604Z" fill="#F6F6F6"/>
<path d="M70.0778 70.122C70.0778 72.9365 69.9934 73.0279 67.3874 73.0279C64.2945 73.0279 64.2102 72.9568 64.2069 70.2642C64.2037 66.9586 64.2426 66.9146 67.157 66.9146C70.0227 66.9112 70.0746 66.9688 70.0778 70.122Z" fill="#F6F6F6"/>
<path d="M166.846 22.3568C169.422 22.3263 169.682 22.5465 169.711 24.7784C169.753 28.1924 169.578 28.4769 167.433 28.5108C164.084 28.5616 163.873 28.4092 163.844 25.9808C163.801 22.3941 163.801 22.3941 166.846 22.3568Z" fill="#F6F6F6"/>
<path d="M174.012 29.791C176.754 29.8012 176.851 29.9028 176.838 32.7376C176.825 35.8705 176.757 35.9382 173.723 35.9314C171.052 35.9246 170.954 35.8061 170.967 32.5412C170.974 29.9062 171.117 29.7775 174.012 29.791Z" fill="#F6F6F6"/>
<path d="M142.46 17.7439C142.476 14.9734 142.573 14.8955 145.9 14.9124C148.23 14.926 148.409 15.1732 148.386 18.428C148.37 20.9106 148.029 21.1985 145.111 21.1748C142.755 21.1612 142.44 20.7548 142.46 17.7439Z" fill="#F6F6F6"/>
<path d="M98.608 32.9239C98.6144 35.6943 98.4067 35.9348 95.9857 35.945C92.8539 35.9551 92.6494 35.7858 92.6494 33.1542C92.6494 30.0078 92.8247 29.791 95.2912 29.791C98.5398 29.7944 98.6015 29.852 98.608 32.9239Z" fill="#F6F6F6"/>
<path d="M145.381 73.0415C142.496 73.0449 142.457 73.0008 142.453 69.868C142.45 67.023 142.574 66.9045 145.608 66.9078C148.259 66.9078 148.367 67.0332 148.373 70.078C148.373 72.8552 148.188 73.0381 145.381 73.0415Z" fill="#F6F6F6"/>
<path d="M152.485 73.0279C149.645 73.0347 149.59 72.9771 149.583 70.0204C149.577 67.1652 149.762 66.918 151.936 66.9112C155.461 66.8977 155.49 66.9248 155.497 69.9357C155.497 72.9297 155.409 73.0212 152.485 73.0279Z" fill="#F6F6F6"/>
<path d="M88.6349 37.215C91.2215 37.2049 91.4584 37.4081 91.4682 39.6265C91.4844 43.2979 91.4487 43.3453 88.4013 43.3555C85.6557 43.3656 85.5713 43.264 85.5518 39.911C85.5388 37.4047 85.7433 37.2252 88.6349 37.215Z" fill="#F6F6F6"/>
<path d="M91.4714 32.8832C91.4811 35.7214 91.3091 35.9145 88.7355 35.9246C85.6816 35.9382 85.5745 35.8366 85.5583 33.0052C85.5453 29.9637 85.7011 29.7775 88.3071 29.7741C91.3578 29.7673 91.4584 29.8655 91.4714 32.8832Z" fill="#F6F6F6"/>
<path d="M138.351 74.5317C141.191 74.4809 141.272 74.5453 141.304 76.8382C141.35 80.1065 141.119 80.4317 138.728 80.4689C135.606 80.5197 135.343 80.3402 135.313 78.1387C135.262 74.5859 135.262 74.5859 138.351 74.5317Z" fill="#F6F6F6"/>
<path d="M88.3948 73.0482C85.7336 73.0584 85.5778 72.9026 85.5681 70.2541C85.5584 67.0602 85.672 66.918 88.2196 66.9112C91.3189 66.9044 91.4617 67.023 91.4715 69.6309C91.4845 73.0178 91.465 73.0381 88.3948 73.0482Z" fill="#F6F6F6"/>
<path d="M202.344 28.5006C199.498 28.4667 199.426 28.3787 199.455 24.9376C199.478 22.4516 199.666 22.3195 203.142 22.35C205.252 22.3703 205.407 22.6176 205.372 25.9096C205.349 28.3075 205.086 28.5345 202.344 28.5006Z" fill="#F6F6F6"/>
</g>
<defs>
<clipPath id="clip0_9_8467">
<rect width="248" height="80.496" fill="white"/>
</clipPath>
</defs>
</svg>
